# Blender 4.3.0
# www.blender.org
mtllib House.mtl
o Cube
v -1.000000 -1.000000 -1.000000
v -1.000000 1.000000 -1.000000
v -1.000000 -1.000000 1.000000
v -1.000000 1.000000 1.000000
v 1.000000 -1.000000 -1.000000
v 1.000000 1.000000 -1.000000
v 1.000000 -1.000000 1.000000
v 1.000000 1.000000 1.000000
v -1.922188 -1.000000 1.922188
v 1.922188 -1.000000 1.922188
v -1.922188 -1.000000 -1.922188
v 1.922188 -1.000000 -1.922188
v -0.165195 -2.819526 0.165195
v 0.165195 -2.819526 0.165195
v -0.165195 -2.819526 -0.165195
v 0.165195 -2.819526 -0.165195
v -1.000000 -0.650507 -1.000000
v 1.000000 -0.650507 1.000000
v -1.000000 -0.650507 1.000000
v 1.000000 -0.650507 -1.000000
v 1.000000 1.000000 -0.333333
v 1.000000 1.000000 0.333333
v -1.000000 -1.000000 -0.333333
v -1.000000 -1.000000 0.333333
v 1.000000 -1.000000 0.333333
v 1.000000 -1.000000 -0.333333
v -1.000000 1.000000 0.333333
v -1.000000 1.000000 -0.333333
v -1.922188 -1.000000 -0.640729
v -1.922188 -1.000000 0.640729
v 1.922188 -1.000000 0.640729
v 1.922188 -1.000000 -0.640729
v -0.165195 -2.819526 -0.055065
v -0.165195 -2.819526 0.055065
v 0.165195 -2.819526 0.055065
v 0.165195 -2.819526 -0.055065
v -1.000000 -0.618096 -0.300922
v -1.000000 -0.618096 0.300922
v 1.000000 -0.650507 0.333333
v 1.000000 -0.650507 -0.333333
v -1.000000 0.870393 -1.000000
v -1.000000 0.870393 1.000000
v 1.000000 0.870393 -1.000000
v 1.000000 0.870393 1.000000
v 1.000000 0.870393 0.333333
v 1.000000 0.870393 -0.333333
v -1.000000 0.837982 -0.300922
v -1.000000 0.837982 0.300922
v -1.000000 -0.650507 -0.333333
v -1.000000 -0.650507 0.333333
v -1.000000 0.870393 -0.333333
v -1.000000 0.870393 0.333333
v -0.948489 -0.618096 -0.300922
v -0.948489 -0.618096 0.300922
v -0.948489 0.837982 -0.300922
v -0.948489 0.837982 0.300922
v -1.031788 -0.650507 -0.333333
v -1.031788 -0.650507 0.333333
v -1.031788 0.870393 -0.333333
v -1.031788 0.870393 0.333333
v -1.031788 -0.618096 -0.300922
v -1.031788 -0.618096 0.300922
v -1.031788 0.837982 -0.300922
v -1.031788 0.837982 0.300922
v -0.996985 -1.009045 -0.996985
v -0.994227 0.994227 -0.994227
v -0.996985 -1.009045 0.996985
v -0.994227 0.994227 0.994227
v 0.996985 -1.009045 -0.996985
v 0.994227 0.994227 -0.994227
v 0.996985 -1.009045 0.996985
v 0.994227 0.994227 0.994227
v -1.915307 -1.002303 1.915307
v 1.915307 -1.002303 1.915307
v -1.915307 -1.002303 -1.915307
v 1.915307 -1.002303 -1.915307
v -0.162124 -2.810518 0.162124
v 0.162124 -2.810518 0.162124
v -0.162124 -2.810518 -0.162124
v 0.162124 -2.810518 -0.162124
v -0.992929 -0.650507 -0.992929
v 0.992929 -0.650507 0.992929
v -0.992929 -0.650507 0.992929
v 0.992929 -0.650507 -0.992929
v 0.992929 0.992929 -0.333333
v 0.992929 0.992929 0.333333
v -0.992929 -1.007071 -0.333333
v -0.992929 -1.007071 0.333333
v 0.992929 -1.007071 0.333333
v 0.992929 -1.007071 -0.333333
v -0.992929 0.992929 0.333333
v -0.992929 0.992929 -0.333333
v -1.912983 -1.003907 -0.640729
v -1.912983 -1.003907 0.640729
v 1.912983 -1.003907 0.640729
v 1.912983 -1.003907 -0.640729
v -0.161287 -2.810321 -0.055065
v -0.161287 -2.810321 0.055065
v 0.161287 -2.810321 0.055065
v 0.161287 -2.810321 -0.055065
v -1.000000 -0.625167 -0.307993
v -1.000000 -0.625167 0.307993
v 0.990000 -0.650507 0.333333
v 0.990000 -0.650507 -0.333333
v -0.992929 0.870393 -0.992929
v -0.992929 0.870393 0.992929
v 0.992929 0.870393 -0.992929
v 0.992929 0.870393 0.992929
v 0.990000 0.870393 0.333333
v 0.990000 0.870393 -0.333333
v -1.000000 0.845053 -0.307993
v -1.000000 0.845053 0.307993
v -0.990955 -0.647492 -0.330318
v -0.990955 -0.647492 0.330318
v -0.990955 0.867378 -0.330318
v -0.990955 0.867378 0.330318
v -0.948489 -0.625167 -0.307993
v -0.948489 -0.625167 0.307993
v -0.948489 0.845053 -0.307993
v -0.948489 0.845053 0.307993
v -1.026014 -0.644734 -0.327560
v -1.026014 -0.644734 0.327560
v -1.026014 0.864620 -0.327560
v -1.026014 0.864620 0.327560
v -1.022742 -0.621111 -0.303937
v -1.022742 -0.621111 0.303937
v -1.022742 0.840997 -0.303937
v -1.022742 0.840997 0.303937
vn -0.0000 1.0000 -0.0000
vn -0.0000 -0.0000 1.0000
vn 1.0000 -0.0000 -0.0000
vn -1.0000 -0.0000 -0.0000
vn -0.0000 -0.0000 -1.0000
vn 0.7194 -0.6946 -0.0000
vn -0.0000 -1.0000 -0.0000
vn -0.0000 -0.6946 0.7194
vn -0.0000 -0.6946 -0.7194
vn -0.7194 -0.6946 -0.0000
vn 0.0044 -1.0000 -0.0030
vn -0.0000 -0.0113 -0.9999
vn -1.0000 -0.0082 -0.0044
vn -0.0000 -1.0000 0.0020
vn 1.0000 -0.0055 0.0030
vn -0.0000 -0.0113 0.9999
vn -0.7182 0.6959 0.0004
vn -0.0044 -1.0000 0.0030
vn -0.0000 -1.0000 -0.0073
vn -0.0000 -1.0000 0.0073
vn -0.0000 1.0000 0.0018
vn -0.0000 0.6961 -0.7179
vn -0.0000 0.6961 0.7179
vn 0.7182 0.6959 -0.0004
vn 1.0000 -0.0000 0.0030
vn -1.0000 -0.0000 -0.0044
vn -1.0000 -0.0000 0.0044
vn 1.0000 -0.0000 -0.0030
vn 0.7182 0.6959 0.0004
vn 0.7179 0.6962 -0.0000
vn -0.0000 1.0000 -0.0018
vn -0.0044 -1.0000 -0.0030
vn -0.0034 -1.0000 -0.0000
vn -0.7182 0.6959 -0.0004
vn -0.7179 0.6962 -0.0000
vn 0.9999 -0.0112 -0.0061
vn 1.0000 -0.0055 -0.0000
vn -0.0000 -1.0000 -0.0020
vn -0.9999 -0.0112 0.0061
vn -1.0000 -0.0082 -0.0000
vn 0.0044 -1.0000 0.0030
vn 0.0034 -1.0000 -0.0000
vn 0.9999 0.0157 -0.0000
vn 0.9999 0.0105 -0.0019
vn -0.9997 0.0239 -0.0000
vn -0.9999 0.0105 0.0019
vn -0.0000 0.0105 -0.9999
vn -0.9997 0.0239 -0.0044
vn 0.9999 0.0157 0.0029
vn -0.0000 0.0105 0.9999
vn -0.1756 -0.0000 -0.9845
vn 0.0784 -0.9969 -0.0000
vn -0.1756 0.9845 -0.0000
vn 0.0784 0.9969 -0.0000
vn 0.9905 -0.1372 -0.0000
vn 0.9905 -0.0000 -0.1372
vn 0.9905 -0.0000 0.1372
vn 0.9905 0.1372 -0.0000
vn 0.0784 -0.0000 0.9969
vn -0.1756 -0.0000 0.9845
vn 0.0784 -0.0000 -0.9969
vn -0.1756 -0.9845 -0.0000
vn 0.0061 -1.0000 0.0012
vn -0.9999 -0.0112 -0.0061
vn 0.9999 -0.0112 0.0061
vn -0.7190 0.6950 0.0069
vn -0.0061 -1.0000 -0.0012
vn 0.7190 0.6950 -0.0069
vn 0.7190 0.6950 0.0069
vn -0.0061 -1.0000 0.0012
vn -0.7190 0.6950 -0.0069
vn 1.0000 -0.0055 -0.0030
vn -1.0000 -0.0082 0.0044
vn 0.0061 -1.0000 -0.0012
vn 0.9999 0.0157 -0.0029
vn -0.9997 0.0239 0.0044
vn -0.9999 0.0105 -0.0019
vn 0.9999 0.0105 0.0019
vt 0.625000 0.000000
vt 0.625000 0.083333
vt 0.625000 0.750000
vt 0.581313 1.000000
vt 0.581313 0.750000
vt 0.625000 0.166667
vt 0.581313 0.250000
vt 0.581313 0.166667
vt 0.375000 0.666667
vt 0.125000 0.750000
vt 0.125000 0.666667
vt 0.625000 0.666667
vt 0.581313 0.666667
vt 0.625000 0.250000
vt 0.581313 0.500000
vt 0.625000 0.500000
vt 0.625000 0.583333
vt 0.625000 1.000000
vt 0.875000 0.666667
vt 0.391201 0.500000
vt 0.391201 0.250000
vt 0.391201 0.750000
vt 0.391201 0.666667
vt 0.391201 0.166667
vt 0.391201 1.000000
vt 0.581313 0.000000
vt 0.391201 0.083333
vt 0.391201 0.000000
vt 0.581313 0.083333
vt 0.391201 0.583333
vt 0.395252 0.587385
vt 0.395252 0.662615
vt 0.875000 0.500000
vt 0.875000 0.583333
vt 0.581313 0.583333
vt 0.375000 0.500000
vt 0.125000 0.583333
vt 0.125000 0.500000
vt 0.375000 0.583333
vt 0.375000 0.166667
vt 0.375000 0.083333
vt 0.375000 0.000000
vt 0.375000 1.000000
vt 0.375000 0.750000
vt 0.375000 0.250000
vt 0.577262 0.587385
vt 0.577262 0.662615
vt 0.875000 0.750000
s 0
usemtl Material
f 7/1/1 31/2/1 25/2/1
f 3/3/2 18/4/2 19/5/2
f 26/6/3 20/7/3 40/8/3
f 27/9/1 8/10/1 22/11/1
f 24/12/4 19/5/4 50/13/4
f 5/14/5 17/15/5 20/7/5
f 31/2/6 14/1/6 35/2/6
f 1/16/1 29/17/1 23/17/1
f 5/14/1 11/16/1 1/16/1
f 3/3/1 10/18/1 7/18/1
f 35/19/7 13/3/7 34/12/7
f 9/3/8 14/18/8 10/18/8
f 12/14/9 15/16/9 11/16/9
f 29/17/10 15/16/10 33/17/10
f 20/7/5 41/20/5 43/21/5
f 50/13/4 42/22/4 52/23/4
f 40/8/3 43/21/3 46/24/3
f 19/5/2 44/25/2 42/22/2
f 18/26/3 45/27/3 44/28/3
f 39/29/3 46/24/3 45/27/3
f 17/15/4 51/30/4 41/20/4
f 47/31/7 56/32/7 48/32/7
f 30/12/10 13/3/10 9/3/10
f 29/17/10 34/12/10 30/12/10
f 16/33/7 33/17/7 15/16/7
f 36/34/7 34/12/7 33/17/7
f 3/3/1 30/12/1 9/3/1
f 23/17/1 30/12/1 24/12/1
f 32/6/6 16/14/6 12/14/6
f 31/2/6 36/6/6 32/6/6
f 1/16/4 49/35/4 17/15/4
f 23/17/4 50/13/4 49/35/4
f 2/36/1 21/37/1 6/38/1
f 28/39/1 22/11/1 21/37/1
f 7/1/3 39/29/3 18/26/3
f 25/2/3 40/8/3 39/29/3
f 5/14/1 32/6/1 12/14/1
f 25/2/1 32/6/1 26/6/1
f 51/30/4 27/9/4 28/39/4
f 41/20/4 28/39/4 2/36/4
f 45/27/3 21/40/3 22/41/3
f 44/28/3 22/41/3 8/42/3
f 42/22/2 8/43/2 4/44/2
f 46/24/3 6/45/3 21/40/3
f 52/23/4 4/44/4 27/9/4
f 43/21/5 2/36/5 6/45/5
f 47/31/2 61/46/2 37/46/2
f 51/30/1 60/23/1 52/23/1
f 48/32/7 63/31/7 47/31/7
f 50/13/7 57/35/7 49/35/7
f 37/46/2 55/31/2 47/31/2
f 48/32/5 54/47/5 38/47/5
f 38/47/1 53/46/1 37/46/1
f 61/46/4 58/13/4 62/47/4
f 63/31/4 57/35/4 61/46/4
f 62/47/4 60/23/4 64/32/4
f 64/32/4 59/30/4 63/31/4
f 49/35/5 59/30/5 51/30/5
f 38/47/5 64/32/5 48/32/5
f 52/23/2 58/13/2 50/13/2
f 37/46/1 62/47/1 38/47/1
f 95/2/11 71/1/11 89/2/11
f 82/4/12 67/3/12 83/5/12
f 84/7/13 90/6/13 104/8/13
f 72/10/14 91/9/14 86/11/14
f 83/5/15 88/12/15 114/13/15
f 81/15/16 69/14/16 84/7/16
f 95/2/17 78/1/17 74/1/17
f 93/17/18 65/16/18 87/17/18
f 75/16/19 69/14/19 65/16/19
f 74/18/20 67/3/20 71/18/20
f 77/3/21 99/19/21 98/12/21
f 78/18/22 73/3/22 74/18/22
f 79/16/23 76/14/23 75/16/23
f 93/17/24 79/16/24 75/16/24
f 105/20/2 84/7/2 107/21/2
f 106/22/25 114/13/25 116/23/25
f 107/21/26 104/8/26 110/24/26
f 108/25/5 83/5/5 106/22/5
f 109/27/27 82/26/27 108/28/27
f 110/24/4 103/29/4 109/27/4
f 115/30/28 81/15/28 105/20/28
f 120/32/1 111/31/1 112/32/1
f 77/3/29 94/12/29 73/3/29
f 98/12/30 93/17/30 94/12/30
f 97/17/31 80/33/31 79/16/31
f 98/12/1 100/34/1 97/17/1
f 67/3/32 94/12/32 88/12/32
f 94/12/33 87/17/33 88/12/33
f 80/14/34 96/6/34 76/14/34
f 100/6/35 95/2/35 96/6/35
f 81/15/36 87/17/36 65/16/36
f 114/13/37 87/17/37 113/35/37
f 85/37/38 66/36/38 70/38/38
f 86/11/7 92/39/7 85/37/7
f 82/26/39 89/2/39 71/1/39
f 104/8/40 89/2/40 103/29/40
f 69/14/41 96/6/41 90/6/41
f 96/6/42 89/2/42 90/6/42
f 91/9/43 115/30/43 92/39/43
f 92/39/44 105/20/44 66/36/44
f 85/40/45 109/27/45 86/41/45
f 86/41/46 108/28/46 72/42/46
f 72/43/47 106/22/47 68/44/47
f 85/40/48 107/21/48 110/24/48
f 91/9/49 106/22/49 116/23/49
f 66/36/50 107/21/50 70/45/50
f 125/46/51 111/31/51 101/46/51
f 124/23/52 115/30/52 116/23/52
f 127/31/53 112/32/53 111/31/53
f 121/35/54 114/13/54 113/35/54
f 119/31/5 101/46/5 111/31/5
f 118/47/2 112/32/2 102/47/2
f 117/46/7 102/47/7 101/46/7
f 122/13/55 125/46/55 126/47/55
f 121/35/56 127/31/56 125/46/56
f 124/23/57 126/47/57 128/32/57
f 123/30/58 128/32/58 127/31/58
f 123/30/59 113/35/59 115/30/59
f 128/32/60 102/47/60 112/32/60
f 122/13/61 116/23/61 114/13/61
f 126/47/62 101/46/62 102/47/62
f 54/47/3 117/46/3 53/46/3
f 53/46/3 119/31/3 55/31/3
f 56/32/3 118/47/3 54/47/3
f 55/31/3 120/32/3 56/32/3
f 7/1/1 10/1/1 31/2/1
f 3/3/2 7/18/2 18/4/2
f 26/6/3 5/14/3 20/7/3
f 27/9/1 4/44/1 8/10/1
f 24/12/4 3/3/4 19/5/4
f 5/14/5 1/16/5 17/15/5
f 31/2/6 10/1/6 14/1/6
f 1/16/1 11/16/1 29/17/1
f 5/14/1 12/14/1 11/16/1
f 3/3/1 9/3/1 10/18/1
f 35/19/7 14/48/7 13/3/7
f 9/3/8 13/3/8 14/18/8
f 12/14/9 16/14/9 15/16/9
f 29/17/10 11/16/10 15/16/10
f 20/7/5 17/15/5 41/20/5
f 50/13/4 19/5/4 42/22/4
f 40/8/3 20/7/3 43/21/3
f 19/5/2 18/4/2 44/25/2
f 18/26/3 39/29/3 45/27/3
f 39/29/3 40/8/3 46/24/3
f 17/15/4 49/35/4 51/30/4
f 47/31/7 55/31/7 56/32/7
f 30/12/10 34/12/10 13/3/10
f 29/17/10 33/17/10 34/12/10
f 16/33/7 36/34/7 33/17/7
f 36/34/7 35/19/7 34/12/7
f 3/3/1 24/12/1 30/12/1
f 23/17/1 29/17/1 30/12/1
f 32/6/6 36/6/6 16/14/6
f 31/2/6 35/2/6 36/6/6
f 1/16/4 23/17/4 49/35/4
f 23/17/4 24/12/4 50/13/4
f 2/36/1 28/39/1 21/37/1
f 28/39/1 27/9/1 22/11/1
f 7/1/3 25/2/3 39/29/3
f 25/2/3 26/6/3 40/8/3
f 5/14/1 26/6/1 32/6/1
f 25/2/1 31/2/1 32/6/1
f 51/30/4 52/23/4 27/9/4
f 41/20/4 51/30/4 28/39/4
f 45/27/3 46/24/3 21/40/3
f 44/28/3 45/27/3 22/41/3
f 42/22/2 44/25/2 8/43/2
f 46/24/3 43/21/3 6/45/3
f 52/23/4 42/22/4 4/44/4
f 43/21/5 41/20/5 2/36/5
f 47/31/2 63/31/2 61/46/2
f 51/30/1 59/30/1 60/23/1
f 48/32/7 64/32/7 63/31/7
f 50/13/7 58/13/7 57/35/7
f 37/46/2 53/46/2 55/31/2
f 48/32/5 56/32/5 54/47/5
f 38/47/1 54/47/1 53/46/1
f 61/46/4 57/35/4 58/13/4
f 63/31/4 59/30/4 57/35/4
f 62/47/4 58/13/4 60/23/4
f 64/32/4 60/23/4 59/30/4
f 49/35/5 57/35/5 59/30/5
f 38/47/5 62/47/5 64/32/5
f 52/23/2 60/23/2 58/13/2
f 37/46/1 61/46/1 62/47/1
f 95/2/63 74/1/63 71/1/63
f 82/4/12 71/18/12 67/3/12
f 84/7/64 69/14/64 90/6/64
f 72/10/14 68/44/14 91/9/14
f 83/5/65 67/3/65 88/12/65
f 81/15/16 65/16/16 69/14/16
f 95/2/66 99/2/66 78/1/66
f 93/17/67 75/16/67 65/16/67
f 75/16/19 76/14/19 69/14/19
f 74/18/20 73/3/20 67/3/20
f 77/3/21 78/48/21 99/19/21
f 78/18/22 77/3/22 73/3/22
f 79/16/23 80/14/23 76/14/23
f 93/17/68 97/17/68 79/16/68
f 105/20/2 81/15/2 84/7/2
f 106/22/25 83/5/25 114/13/25
f 107/21/26 84/7/26 104/8/26
f 108/25/5 82/4/5 83/5/5
f 109/27/27 103/29/27 82/26/27
f 110/24/4 104/8/4 103/29/4
f 115/30/28 113/35/28 81/15/28
f 120/32/1 119/31/1 111/31/1
f 77/3/69 98/12/69 94/12/69
f 98/12/30 97/17/30 93/17/30
f 97/17/31 100/34/31 80/33/31
f 98/12/1 99/19/1 100/34/1
f 67/3/70 73/3/70 94/12/70
f 94/12/33 93/17/33 87/17/33
f 80/14/71 100/6/71 96/6/71
f 100/6/35 99/2/35 95/2/35
f 81/15/72 113/35/72 87/17/72
f 114/13/37 88/12/37 87/17/37
f 85/37/38 92/39/38 66/36/38
f 86/11/7 91/9/7 92/39/7
f 82/26/73 103/29/73 89/2/73
f 104/8/40 90/6/40 89/2/40
f 69/14/74 76/14/74 96/6/74
f 96/6/42 95/2/42 89/2/42
f 91/9/43 116/23/43 115/30/43
f 92/39/75 115/30/75 105/20/75
f 85/40/45 110/24/45 109/27/45
f 86/41/76 109/27/76 108/28/76
f 72/43/47 108/25/47 106/22/47
f 85/40/77 70/45/77 107/21/77
f 91/9/78 68/44/78 106/22/78
f 66/36/50 105/20/50 107/21/50
f 125/46/51 127/31/51 111/31/51
f 124/23/52 123/30/52 115/30/52
f 127/31/53 128/32/53 112/32/53
f 121/35/54 122/13/54 114/13/54
f 119/31/5 117/46/5 101/46/5
f 118/47/2 120/32/2 112/32/2
f 117/46/7 118/47/7 102/47/7
f 122/13/55 121/35/55 125/46/55
f 121/35/56 123/30/56 127/31/56
f 124/23/57 122/13/57 126/47/57
f 123/30/58 124/23/58 128/32/58
f 123/30/59 121/35/59 113/35/59
f 128/32/60 126/47/60 102/47/60
f 122/13/61 124/23/61 116/23/61
f 126/47/62 125/46/62 101/46/62
f 54/47/3 118/47/3 117/46/3
f 53/46/3 117/46/3 119/31/3
f 56/32/3 120/32/3 118/47/3
f 55/31/3 119/31/3 120/32/3
